<svg xmlns="http://www.w3.org/2000/svg" width="1000" height="400"><path d="M505,220L595,53L456,152Z" fill="#494c3f" stroke="#494c3f" stroke-width="1.51"/><path d="M505,220L650,154L595,53Z" fill="#4b4d3f" stroke="#4b4d3f" stroke-width="1.51"/><path d="M595,53L465,57L456,152Z" fill="#484a3e" stroke="#484a3e" stroke-width="1.51"/><path d="M465,57L351,130L456,152Z" fill="#474a3e" stroke="#474a3e" stroke-width="1.51"/><path d="M557,-85L440,9L465,57Z" fill="#44463d" stroke="#44463d" stroke-width="1.51"/><path d="M650,154L717,124L595,53Z" fill="#4a4d3f" stroke="#4a4d3f" stroke-width="1.51"/><path d="M649,283L717,124L650,154Z" fill="#4e5040" stroke="#4e5040" stroke-width="1.51"/><path d="M505,220L649,283L650,154Z" fill="#4d5040" stroke="#4d5040" stroke-width="1.51"/><path d="M440,9L351,130L465,57Z" fill="#45483e" stroke="#45483e" stroke-width="1.51"/><path d="M296,287L426,371L505,220Z" fill="#4d5041" stroke="#4d5041" stroke-width="1.51"/><path d="M595,53L557,-85L465,57Z" fill="#45473d" stroke="#45473d" stroke-width="1.51"/><path d="M678,-76L557,-85L595,53Z" fill="#46483e" stroke="#46483e" stroke-width="1.51"/><path d="M351,130L296,287L456,152Z" fill="#494b3f" stroke="#494b3f" stroke-width="1.51"/><path d="M505,220L615,368L649,283Z" fill="#505342" stroke="#505342" stroke-width="1.51"/><path d="M275,7L311,151L351,130Z" fill="#45473d" stroke="#45473d" stroke-width="1.51"/><path d="M649,283L814,157L717,124Z" fill="#4e5141" stroke="#4e5141" stroke-width="1.51"/><path d="M538,398L615,368L505,220Z" fill="#505442" stroke="#505442" stroke-width="1.51"/><path d="M717,124L678,-76L595,53Z" fill="#484a3e" stroke="#484a3e" stroke-width="1.51"/><path d="M426,371L538,398L505,220Z" fill="#4f5341" stroke="#4f5341" stroke-width="1.51"/><path d="M296,287L505,220L456,152Z" fill="#4b4e40" stroke="#4b4e40" stroke-width="1.51"/><path d="M814,346L814,157L649,283Z" fill="#515442" stroke="#515442" stroke-width="1.51"/><path d="M717,124L819,-74L678,-76Z" fill="#484a3e" stroke="#484a3e" stroke-width="1.51"/><path d="M615,368L626,403L649,283Z" fill="#525643" stroke="#525643" stroke-width="1.51"/><path d="M538,398L626,403L615,368Z" fill="#535743" stroke="#535743" stroke-width="1.51"/><path d="M311,151L296,287L351,130Z" fill="#494b3f" stroke="#494b3f" stroke-width="1.51"/><path d="M426,371L470,423L538,398Z" fill="#525642" stroke="#525642" stroke-width="1.51"/><path d="M538,398L554,559L626,403Z" fill="#535743" stroke="#535743" stroke-width="1.51"/><path d="M347,389L470,423L426,371Z" fill="#515542" stroke="#515542" stroke-width="1.51"/><path d="M440,9L275,7L351,130Z" fill="#44463d" stroke="#44463d" stroke-width="1.51"/><path d="M557,-85L441,-142L440,9Z" fill="#44463d" stroke="#44463d" stroke-width="1.51"/><path d="M573,-170L441,-142L557,-85Z" fill="#45473d" stroke="#45473d" stroke-width="1.51"/><path d="M345,-162L275,7L440,9Z" fill="#42443c" stroke="#42443c" stroke-width="1.51"/><path d="M311,151L243,218L296,287Z" fill="#494c3f" stroke="#494c3f" stroke-width="1.51"/><path d="M814,157L847,71L717,124Z" fill="#4c4f40" stroke="#4c4f40" stroke-width="1.51"/><path d="M678,-76L573,-170L557,-85Z" fill="#46483e" stroke="#46483e" stroke-width="1.51"/><path d="M715,-171L573,-170L678,-76Z" fill="#47493e" stroke="#47493e" stroke-width="1.51"/><path d="M183,131L243,218L311,151Z" fill="#47493e" stroke="#47493e" stroke-width="1.51"/><path d="M178,400L347,389L296,287Z" fill="#4d5141" stroke="#4d5141" stroke-width="1.51"/><path d="M296,287L347,389L426,371Z" fill="#4f5241" stroke="#4f5241" stroke-width="1.51"/><path d="M626,403L814,346L649,283Z" fill="#535743" stroke="#535743" stroke-width="1.51"/><path d="M814,157L957,69L847,71Z" fill="#4d5041" stroke="#4d5041" stroke-width="1.51"/><path d="M847,71L819,-74L717,124Z" fill="#4a4c3f" stroke="#4a4c3f" stroke-width="1.51"/><path d="M819,-74L715,-171L678,-76Z" fill="#484a3e" stroke="#484a3e" stroke-width="1.51"/><path d="M441,-142L345,-162L440,9Z" fill="#43453d" stroke="#43453d" stroke-width="1.51"/><path d="M573,-170L345,-162L441,-142Z" fill="#44463d" stroke="#44463d" stroke-width="1.51"/><path d="M275,7L183,131L311,151Z" fill="#45463d" stroke="#45463d" stroke-width="1.51"/><path d="M331,564L395,519L347,389Z" fill="#505442" stroke="#505442" stroke-width="1.51"/><path d="M126,-8L183,131L275,7Z" fill="#42433c" stroke="#42433c" stroke-width="1.51"/><path d="M345,-162L231,-89L275,7Z" fill="#42433c" stroke="#42433c" stroke-width="1.51"/><path d="M819,-74L851,-116L715,-171Z" fill="#484b3f" stroke="#484b3f" stroke-width="1.51"/><path d="M975,-8L851,-116L819,-74Z" fill="#4a4c3f" stroke="#4a4c3f" stroke-width="1.51"/><path d="M347,389L395,519L470,423Z" fill="#515442" stroke="#515442" stroke-width="1.51"/><path d="M470,423L554,559L538,398Z" fill="#525643" stroke="#525643" stroke-width="1.51"/><path d="M626,403L813,489L814,346Z" fill="#555a44" stroke="#555a44" stroke-width="1.51"/><path d="M163,329L296,287L243,218Z" fill="#4a4d40" stroke="#4a4d40" stroke-width="1.51"/><path d="M847,71L975,-8L819,-74Z" fill="#4a4c3f" stroke="#4a4c3f" stroke-width="1.51"/><path d="M970,224L957,69L814,157Z" fill="#4f5241" stroke="#4f5241" stroke-width="1.51"/><path d="M395,519L554,559L470,423Z" fill="#525542" stroke="#525542" stroke-width="1.51"/><path d="M814,346L970,224L814,157Z" fill="#515643" stroke="#515643" stroke-width="1.51"/><path d="M955,349L970,224L814,346Z" fill="#555943" stroke="#555943" stroke-width="1.51"/><path d="M115,242L163,329L243,218Z" fill="#494b3f" stroke="#494b3f" stroke-width="1.51"/><path d="M693,565L813,489L626,403Z" fill="#555944" stroke="#555944" stroke-width="1.51"/><path d="M1,85L115,242L183,131Z" fill="#44463d" stroke="#44463d" stroke-width="1.51"/><path d="M183,131L115,242L243,218Z" fill="#47493e" stroke="#47493e" stroke-width="1.51"/><path d="M231,-89L126,-8L275,7Z" fill="#41423b" stroke="#41423b" stroke-width="1.51"/><path d="M957,69L975,-8L847,71Z" fill="#4c4f40" stroke="#4c4f40" stroke-width="1.51"/><path d="M1060,63L975,-8L957,69Z" fill="#4d5040" stroke="#4d5040" stroke-width="1.51"/><path d="M554,559L693,565L626,403Z" fill="#545843" stroke="#545843" stroke-width="1.51"/><path d="M84,398L178,400L163,329Z" fill="#4c4f40" stroke="#4c4f40" stroke-width="1.51"/><path d="M163,329L178,400L296,287Z" fill="#4c4f40" stroke="#4c4f40" stroke-width="1.51"/><path d="M886,484L955,349L814,346Z" fill="#575b45" stroke="#575b45" stroke-width="1.51"/><path d="M115,242L126,312L163,329Z" fill="#4a4c3f" stroke="#4a4c3f" stroke-width="1.51"/><path d="M178,400L331,564L347,389Z" fill="#4f5341" stroke="#4f5341" stroke-width="1.51"/><path d="M395,519L331,564L554,559Z" fill="#515542" stroke="#515542" stroke-width="1.51"/><path d="M554,559L256,594L693,565Z" fill="#525643" stroke="#525643" stroke-width="1.51"/><path d="M1021,316L1025,225L970,224Z" fill="#545843" stroke="#545843" stroke-width="1.51"/><path d="M970,224L1025,225L957,69Z" fill="#515442" stroke="#515442" stroke-width="1.51"/><path d="M813,489L886,484L814,346Z" fill="#575b44" stroke="#575b44" stroke-width="1.51"/><path d="M955,349L1021,316L970,224Z" fill="#555944" stroke="#555944" stroke-width="1.51"/><path d="M788,573L886,484L813,489Z" fill="#565b44" stroke="#565b44" stroke-width="1.51"/><path d="M851,-116L890,-209L715,-171Z" fill="#494b3f" stroke="#494b3f" stroke-width="1.51"/><path d="M715,-171L890,-209L573,-170Z" fill="#484a3e" stroke="#484a3e" stroke-width="1.51"/><path d="M573,-170L29,-198L345,-162Z" fill="#42443c" stroke="#42443c" stroke-width="1.51"/><path d="M1045,-51L890,-209L851,-116Z" fill="#4a4d3f" stroke="#4a4d3f" stroke-width="1.51"/><path d="M126,-8L76,25L183,131Z" fill="#41433b" stroke="#41433b" stroke-width="1.51"/><path d="M-12,290L84,398L126,312Z" fill="#4a4d3f" stroke="#4a4d3f" stroke-width="1.51"/><path d="M13,-39L76,25L126,-8Z" fill="#3f403a" stroke="#3f403a" stroke-width="1.51"/><path d="M231,-89L164,-166L126,-8Z" fill="#40413b" stroke="#40413b" stroke-width="1.51"/><path d="M345,-162L164,-166L231,-89Z" fill="#41423c" stroke="#41423c" stroke-width="1.51"/><path d="M29,-198L164,-166L345,-162Z" fill="#40413b" stroke="#40413b" stroke-width="1.51"/><path d="M693,565L788,573L813,489Z" fill="#565a44" stroke="#565a44" stroke-width="1.51"/><path d="M256,594L788,573L693,565Z" fill="#535743" stroke="#535743" stroke-width="1.51"/><path d="M1020,448L1021,316L955,349Z" fill="#585d44" stroke="#585d44" stroke-width="1.51"/><path d="M975,-8L1045,-51L851,-116Z" fill="#4b4e40" stroke="#4b4e40" stroke-width="1.51"/><path d="M1025,225L1060,63L957,69Z" fill="#4f5341" stroke="#4f5341" stroke-width="1.51"/><path d="M1112,249L1060,63L1025,225Z" fill="#515542" stroke="#515542" stroke-width="1.51"/><path d="M1060,63L1045,-51L975,-8Z" fill="#4b4e40" stroke="#4b4e40" stroke-width="1.51"/><path d="M-12,290L126,312L115,242Z" fill="#484b3f" stroke="#484b3f" stroke-width="1.51"/><path d="M126,312L84,398L163,329Z" fill="#4b4e40" stroke="#4b4e40" stroke-width="1.51"/><path d="M178,400L256,594L331,564Z" fill="#4f5241" stroke="#4f5241" stroke-width="1.51"/><path d="M331,564L256,594L554,559Z" fill="#505442" stroke="#505442" stroke-width="1.51"/><path d="M46,545L256,594L178,400Z" fill="#4d5141" stroke="#4d5141" stroke-width="1.51"/><path d="M76,25L1,85L183,131Z" fill="#41433c" stroke="#41433c" stroke-width="1.51"/><path d="M13,-39L1,85L76,25Z" fill="#3f403a" stroke="#3f403a" stroke-width="1.51"/><path d="M1021,316L1112,249L1025,225Z" fill="#545843" stroke="#545843" stroke-width="1.51"/><path d="M886,484L1020,448L955,349Z" fill="#595d45" stroke="#595d45" stroke-width="1.51"/><path d="M984,533L1020,448L886,484Z" fill="#595d45" stroke="#595d45" stroke-width="1.51"/><path d="M164,-166L13,-39L126,-8Z" fill="#3f403b" stroke="#3f403b" stroke-width="1.51"/><path d="M-110,225L-15,222L1,85Z" fill="#44453d" stroke="#44453d" stroke-width="1.51"/><path d="M1,85L-15,222L115,242Z" fill="#44463d" stroke="#44463d" stroke-width="1.51"/><path d="M1132,333L1112,249L1021,316Z" fill="#555a44" stroke="#555a44" stroke-width="1.51"/><path d="M1150,-149L1056,-184L1045,-51Z" fill="#4b4e40" stroke="#4b4e40" stroke-width="1.51"/><path d="M-15,222L-12,290L115,242Z" fill="#47493e" stroke="#47493e" stroke-width="1.51"/><path d="M84,398L46,545L178,400Z" fill="#4d5040" stroke="#4d5040" stroke-width="1.51"/><path d="M962,572L984,533L886,484Z" fill="#585d44" stroke="#585d44" stroke-width="1.51"/><path d="M1020,448L1132,333L1021,316Z" fill="#585c45" stroke="#585c45" stroke-width="1.51"/><path d="M1139,-32L1045,-51L1060,63Z" fill="#4b4e40" stroke="#4b4e40" stroke-width="1.51"/><path d="M1045,-51L1056,-184L890,-209Z" fill="#4b4e40" stroke="#4b4e40" stroke-width="1.51"/><path d="M788,573L962,572L886,484Z" fill="#575c45" stroke="#575c45" stroke-width="1.51"/><path d="M256,594L962,572L788,573Z" fill="#545943" stroke="#545943" stroke-width="1.51"/><path d="M1198,57L1139,-32L1060,63Z" fill="#4c4f40" stroke="#4c4f40" stroke-width="1.51"/><path d="M1112,249L1198,57L1060,63Z" fill="#4f5341" stroke="#4f5341" stroke-width="1.51"/><path d="M1154,428L1132,333L1020,448Z" fill="#595e45" stroke="#595e45" stroke-width="1.51"/><path d="M1154,428L1020,448L1182,553Z" fill="#595e45" stroke="#595e45" stroke-width="1.51"/><path d="M-188,-36L-187,99L1,85Z" fill="#40413b" stroke="#40413b" stroke-width="1.51"/><path d="M164,-166L29,-198L13,-39Z" fill="#3f403a" stroke="#3f403a" stroke-width="1.51"/><path d="M890,-209L29,-198L573,-170Z" fill="#44463d" stroke="#44463d" stroke-width="1.51"/><path d="M29,-198L-51,-106L13,-39Z" fill="#3e3f3a" stroke="#3e3f3a" stroke-width="1.51"/><path d="M-15,222L-110,225L-12,290Z" fill="#46483e" stroke="#46483e" stroke-width="1.51"/><path d="M-57,474L46,545L84,398Z" fill="#4c4f40" stroke="#4c4f40" stroke-width="1.51"/><path d="M1139,-32L1150,-149L1045,-51Z" fill="#4b4e40" stroke="#4b4e40" stroke-width="1.51"/><path d="M1132,333L1198,57L1112,249Z" fill="#525643" stroke="#525643" stroke-width="1.51"/><path d="M1198,57L1150,-149L1139,-32Z" fill="#4b4e40" stroke="#4b4e40" stroke-width="1.51"/><path d="M-12,290L-57,474L84,398Z" fill="#4b4e40" stroke="#4b4e40" stroke-width="1.51"/><path d="M-187,99L-110,225L1,85Z" fill="#42443c" stroke="#42443c" stroke-width="1.51"/><path d="M1132,333L1154,428L1198,57Z" fill="#545944" stroke="#545944" stroke-width="1.51"/><path d="M1182,553L1020,448L984,533Z" fill="#595e45" stroke="#595e45" stroke-width="1.51"/><path d="M-145,389L-57,474L-12,290Z" fill="#4b4e40" stroke="#4b4e40" stroke-width="1.51"/><path d="M-188,-36L1,85L13,-39Z" fill="#3e3f3a" stroke="#3e3f3a" stroke-width="1.51"/><path d="M-161,356L-145,389L-12,290Z" fill="#494c3f" stroke="#494c3f" stroke-width="1.51"/><path d="M-161,356L-12,290L-110,225Z" fill="#484a3e" stroke="#484a3e" stroke-width="1.51"/><path d="M-187,99L-161,356L-110,225Z" fill="#45473d" stroke="#45473d" stroke-width="1.51"/><path d="M-200,-183L-188,-36L-51,-106Z" fill="#3e3f3a" stroke="#3e3f3a" stroke-width="1.51"/><path d="M-51,-106L-188,-36L13,-39Z" fill="#3e3f3a" stroke="#3e3f3a" stroke-width="1.51"/><path d="M1154,428L1182,553L1198,57Z" fill="#575c45" stroke="#575c45" stroke-width="1.51"/><path d="M962,572L1182,553L984,533Z" fill="#595e45" stroke="#595e45" stroke-width="1.51"/><path d="M46,545L-88,574L256,594Z" fill="#4c4f40" stroke="#4c4f40" stroke-width="1.51"/><path d="M-57,474L-88,574L46,545Z" fill="#4b4e40" stroke="#4b4e40" stroke-width="1.51"/><path d="M-205,555L-88,574L-57,474Z" fill="#4b4e40" stroke="#4b4e40" stroke-width="1.51"/><path d="M-205,555L-57,474L-145,389Z" fill="#4b4e40" stroke="#4b4e40" stroke-width="1.51"/><path d="M29,-198L-200,-183L-51,-106Z" fill="#3e3f3a" stroke="#3e3f3a" stroke-width="1.51"/><path d="M-188,-36L-200,-183L-187,99Z" fill="#3e3f3a" stroke="#3e3f3a" stroke-width="1.51"/><path d="M-161,356L-205,555L-145,389Z" fill="#4b4e40" stroke="#4b4e40" stroke-width="1.51"/><path d="M-187,99L-205,555L-161,356Z" fill="#494c3f" stroke="#494c3f" stroke-width="1.51"/><path d="M-200,-183L-205,555L-187,99Z" fill="#43453c" stroke="#43453c" stroke-width="1.51"/></svg>